{"title":"Tower.Heist.2011.Cam.Ac3.Xvid.ANALOG","uid":6814659,"size":1369742680,"categoryP":"video","categoryS":"movies","magnet":"?xt=urn:btih:86635574794d8700c115a6012af2df29da59f8b9&amp;dn=Tower.Heist.2011.Cam.Ac3.Xvid.ANALOG&amp;tr=udp%3A%2F%2Ftracker.openbittorrent.com%3A80&amp;tr=udp%3A%2F%2Fopen.demonii.com%3A1337&amp;tr=udp%3A%2F%2Ftracker.coppersurfer.tk%3A6969&amp;tr=udp%3A%2F%2Fexodus.desync.com%3A6969","seeders":0,"leechers":0,"uploader":"LegendET","files":10,"time":1321163339,"description":"[center]\n[img]http://img802.imageshack.us/img802/8164/towerheist.jpg[/img]\n\nGeneral\nComplete name                            : C:\\Tower.Heist.2011.Cam.Ac3.Xvid.ANALOG\\T.H.CAM.ANALOG.avi\nFormat                                   : AVI\nFormat/Info                              : Audio Video Interleave\nFile size                                : 1.27 GiB\nDuration                                 : 1h 38mn\nOverall bit rate                         : 1 841 Kbps\nMovie name                               : T.H.CAM.ANALOG\nWriting application                      : VirtualDub build 32842/release\nCopyright                                : ANALOG\nEncoded by                               : Cooperman\n\nVideo\nID                                       : 0\nFormat                                   : MPEG-4 Visual\nFormat profile                           : Advanced Simple@L5\nFormat settings, BVOP                    : 1\nFormat settings, QPel                    : Yes\nFormat settings, GMC                     : No warppoints\nFormat settings, Matrix                  : Default (H.263)\nMuxing mode                              : Packed bitstream\nCodec ID                                 : XVID\nCodec ID/Hint                            : XviD\nDuration                                 : 1h 38mn\nBit rate                                 : 1 717 Kbps\nWidth                                    : 704 pixels\nHeight                                   : 304 pixels\nDisplay aspect ratio                     : 2.35:1\nFrame rate                               : 29.970 fps\nColor space                              : YUV\nChroma subsampling                       : 4:2:0\nBit depth                                : 8 bits\nScan type                                : Progressive\nCompression mode                         : Lossy\nBits/(Pixel*Frame)                       : 0.268\nStream size                              : 1.18 GiB (93%)\nWriting library                          : XviD 1.2.1 (UTC 2008-12-04)\n\nAudio\nID                                       : 1\nFormat                                   : AC-3\nFormat/Info                              : Audio Coding 3\nMode extension                           : CM (complete main)\nCodec ID                                 : 2000\nDuration                                 : 1h 38mn\nBit rate mode                            : Constant\nBit rate                                 : 112 Kbps\nChannel(s)                               : 2 channels\nChannel positions                        : Front: L R\nSampling rate                            : 48.0 KHz\nBit depth                                : 16 bits\nCompression mode                         : Lossy\nStream size                              : 78.9 MiB (6%)\nAlignment                                : Split accross interleaves\nInterleave, duration                     : 33 ms (1.00 video frame)\nInterleave, preload duration             : 512 ms\nLanguage                                 : English\nSample                                   : Yes\nsource file : Tower Heist - Cam - 2011 - HP\nTHANX HP \nAs humans, we perceive the world in analog. Everything we see and hear is a continuous transmission of information to our senses..&lt;a class=&quot;__cf_email__&quot; href=&quot;/cdn-cgi/l/email-protection&quot; data-cfemail=&quot;8bcac5cac7c4cca5dba5b9a5dbcbc3ded8c3c6cac2c7a5c8c4c6&quot;&gt;[email&amp;#160;protected]&lt;/a&gt;&lt;script cf-hash='f9e31' type=&quot;text/javascript&quot;&gt;\n/* &lt;![CDATA[ */!function(){try{var t=&quot;currentScript&quot;in document?document.currentScript:function(){for(var t=document.getElementsByTagName(&quot;script&quot;),e=t.length;e--;)if(t[e].getAttribute(&quot;cf-hash&quot;))return t[e]}();if(t&amp;&amp;t.previousSibling){var e,r,n,i,c=t.previousSibling,a=c.getAttribute(&quot;data-cfemail&quot;);if(a){for(e=&quot;&quot;,r=parseInt(a.substr(0,2),16),n=2;a.length-n;n+=2)i=parseInt(a.substr(n,2),16)^r,e+=String.fromCharCode(i);e=document.createTextNode(e),c.parentNode.replaceChild(e,c)}}}catch(u){}}();/* ]]&gt; */&lt;/script&gt;\nGREATINGS TO ALL THE P2P PLACES I LURK AT!!\n\n[img]http://img404.imageshack.us/img404/9837/thcamogavisnapshot00254.png[/img]\n\n[img]http://img832.imageshack.us/img832/2563/thcamogavisnapshot00435.png[/img]\n\n[img]http://img823.imageshack.us/img823/6877/thcamogavisnapshot00441.png[/img]\n\n[img]http://img839.imageshack.us/img839/3246/thcamogavisnapshot00504.png[/img]\n\n[img]http://img39.imageshack.us/img39/564/thcamogavisnapshot01322.png[/img]\n\n[img]http://img849.imageshack.us/img849/4291/thcamogavisnapshot01352.png[/img]\n\n[/center]","torrent":{"xt":"urn:btih:86635574794d8700c115a6012af2df29da59f8b9","amp;dn":"Tower.Heist.2011.Cam.Ac3.Xvid.ANALOG","amp;tr":["udp%3A%2F%2Ftracker.openbittorrent.com%3A80","udp%3A%2F%2Fopen.demonii.com%3A1337","udp%3A%2F%2Ftracker.coppersurfer.tk%3A6969","udp%3A%2F%2Fexodus.desync.com%3A6969"],"infoHash":"86635574794d8700c115a6012af2df29da59f8b9","infoHashBuffer":{"type":"Buffer","data":[134,99,85,116,121,77,135,0,193,21,166,1,42,242,223,41,218,89,248,185]},"announce":[],"urlList":[]}}